<?xml version="1.0" encoding="UTF-8" standalone="no"?>
<!-- Created with Inkscape (http://www.inkscape.org/) -->

<svg
   version="1.1"
   id="svg9"
   width="840"
   height="840"
   viewBox="0 0 840 840"
   sodipodi:docname="Sonic.svg"
   inkscape:version="1.2.1 (9c6d41e410, 2022-07-14)"
   xmlns:inkscape="http://www.inkscape.org/namespaces/inkscape"
   xmlns:sodipodi="http://sodipodi.sourceforge.net/DTD/sodipodi-0.dtd"
   xmlns="http://www.w3.org/2000/svg"
   xmlns:svg="http://www.w3.org/2000/svg">
  <defs
     id="defs13" />
  <sodipodi:namedview
     id="namedview11"
     pagecolor="#ffffff"
     bordercolor="#000000"
     borderopacity="0.25"
     inkscape:showpageshadow="2"
     inkscape:pageopacity="0.0"
     inkscape:pagecheckerboard="0"
     inkscape:deskcolor="#d1d1d1"
     showgrid="false"
     inkscape:zoom="0.96904762"
     inkscape:cx="200.19656"
     inkscape:cy="497.39558"
     inkscape:window-width="1920"
     inkscape:window-height="1017"
     inkscape:window-x="-8"
     inkscape:window-y="-8"
     inkscape:window-maximized="1"
     inkscape:current-layer="g15" />
  <g
     inkscape:groupmode="layer"
     inkscape:label="Image"
     id="g15">
    <ellipse
       style="fill:#000000"
       id="path236"
       cx="463.98648"
       cy="377.17444"
       rx="0.38697788"
       ry="0.51597053" />
    <ellipse
       style="fill:#000000"
       id="path238"
       cx="465.14743"
       cy="385.42996"
       rx="0.51597053"
       ry="1.2899263" />
    <path
       style="fill:#2256b2;fill-opacity:1;stroke:none;stroke-width:1.7;stroke-dasharray:none;stroke-opacity:1"
       d="m 285.83554,364.27518 c -41.50428,-15.21429 -118.14849,7.77534 -170.91144,47.20372 -4.78701,-24.74428 4.16494,-48.40239 12.89926,-71.20393 9.96623,-26.01752 30.42541,-39.72229 49.0172,-54.17691 -2.23678,-8.01893 -15.39392,-14.67281 -50.56511,-18.57494 -33.165623,-2.8141 -53.635443,4.95163 -79.459463,8.25553 10.43114,-24.91064 30.8603,-48.67806 53.660933,-69.14005 23.78085,-21.34166 51.6772,-28.70071 78.42752,-33.02211 -5.04707,-17.77131 -16.69785,-32.24076 -29.92629,-45.92138 C 129.36594,105.71233 106.73907,101.81756 84.481837,95.704936 145.54829,77.948673 207.82916,65.657296 274.35899,72.486263 c 65.35175,7.721621 96.00123,30.124977 126.41277,52.628997 23.64079,-1.10341 45.25158,-1.62681 59.33661,0 1.4493,22.96779 -5.87357,38.91785 -10.83538,56.75676 6.76138,3.92343 14.58478,0.41268 20.12285,12.89926 4.70016,41.04787 -18.80718,67.99199 -28.89435,101.64619 z"
       id="path4154"
       sodipodi:nodetypes="ccscccscccccccccc" />
    <path
       id="path3175"
       style="fill:#1a1a1a;fill-opacity:1;stroke:none;stroke-opacity:1"
       d="m 398.80648,263.80099 a 12.899263,29.14217 8.0337652 0 0 0.43164,2.89844 12.899263,29.14217 8.0337652 0 0 0.70118,2.99414 12.899263,29.14217 8.0337652 0 0 0.90429,2.66602 12.899263,29.14217 8.0337652 0 0 1.09375,2.29296 12.899263,29.14217 8.0337652 0 0 1.26172,1.88086 12.899263,29.14217 8.0337652 0 0 1.41211,1.43555 12.899263,29.14217 8.0337652 0 0 1.5332,0.96875 12.899263,29.14217 8.0337652 0 0 1.63282,0.48242 12.899263,29.14217 8.0337652 0 0 1.70117,-0.0117 12.899263,29.14217 8.0337652 0 0 1.74414,-0.50586 12.899263,29.14217 8.0337652 0 0 1.75195,-0.99023 12.899263,29.14217 8.0337652 0 0 1.73438,-1.45703 12.899263,29.14217 8.0337652 0 0 1.68554,-1.90235 12.899263,29.14217 8.0337652 0 0 1.60743,-2.31054 12.899263,29.14217 8.0337652 0 0 1.50195,-2.68164 12.899263,29.14217 8.0337652 0 0 1.37109,-3.00782 12.899263,29.14217 8.0337652 0 0 1.2168,-3.28125 12.899263,29.14217 8.0337652 0 0 1.04101,-3.49804 12.899263,29.14217 8.0337652 0 0 0.84961,-3.65625 12.899263,29.14217 8.0337652 0 0 0.64063,-3.75196 12.899263,29.14217 8.0337652 0 0 0.16601,-1.25976 12.899263,29.14217 8.0337652 0 0 0.14063,-1.26172 12.899263,29.14217 8.0337652 0 0 0.11523,-1.25977 12.899263,29.14217 8.0337652 0 0 0.0918,-1.25586 12.899263,29.14217 8.0337652 0 0 0.0644,-1.25 12.899263,29.14217 8.0337652 0 0 0.041,-1.24218 12.899263,29.14217 8.0337652 0 0 0.0137,-1.23047 12.899263,29.14217 8.0337652 0 0 -0.01,-1.21875 12.899263,29.14217 8.0337652 0 0 -0.0371,-1.20117 12.899263,29.14217 8.0337652 0 0 -0.0625,-1.1836 12.899263,29.14217 8.0337652 0 0 -0.0859,-1.16406 12.899263,29.14217 8.0337652 0 0 -0.11328,-1.14258 12.899263,29.14217 8.0337652 0 0 -0.13672,-1.11719 12.899263,29.14217 8.0337652 0 0 -0.16211,-1.08984 12.899263,29.14217 8.0337652 0 0 -0.18555,-1.0625 12.899263,29.14217 8.0337652 0 0 -0.21093,-1.0293 12.899263,29.14217 8.0337652 0 0 -0.23243,-1 12.899263,29.14217 8.0337652 0 0 -0.25781,-0.96289 12.899263,29.14217 8.0337652 0 0 -0.2793,-0.92773 12.899263,29.14217 8.0337652 0 0 -0.30273,-0.88867 12.899263,29.14217 8.0337652 0 0 -0.32227,-0.84961 12.899263,29.14217 8.0337652 0 0 -0.3457,-0.8086 12.899263,29.14217 8.0337652 0 0 -0.36328,-0.76367 12.899263,29.14217 8.0337652 0 0 -0.38477,-0.7207 12.899263,29.14217 8.0337652 0 0 -0.40234,-0.67578 12.899263,29.14217 8.0337652 0 0 -0.42187,-0.62695 12.899263,29.14217 8.0337652 0 0 -0.20899,-0.2754 c -6.86503,9.61078 -14.58534,25.36711 -21.92383,38.9043 z" />
    <path
       id="path4448"
       style="fill:#ffffff;fill-opacity:1;stroke:none;stroke-opacity:1"
       d="m 305.66651,180.99584 c -31.29865,-0.78009 -58.47151,28.90454 -34.9707,113.0625 25.95809,9.40446 50.02881,23.52769 78.42773,26.83008 -1.82536,-0.68451 59.00047,11.73574 78.42773,-12.38281 7.76253,-9.637 27.63694,-74.69835 6.19141,-91.32617 -3.58064,-2.77626 -8.09331,0.93825 -13.05664,7.88671 a 12.899263,29.14217 8.0337652 0 1 0.20899,0.2754 12.899263,29.14217 8.0337652 0 1 0.42187,0.62695 12.899263,29.14217 8.0337652 0 1 0.40234,0.67578 12.899263,29.14217 8.0337652 0 1 0.38477,0.7207 12.899263,29.14217 8.0337652 0 1 0.36328,0.76367 12.899263,29.14217 8.0337652 0 1 0.3457,0.8086 12.899263,29.14217 8.0337652 0 1 0.32227,0.84961 12.899263,29.14217 8.0337652 0 1 0.30273,0.88867 12.899263,29.14217 8.0337652 0 1 0.2793,0.92773 12.899263,29.14217 8.0337652 0 1 0.25781,0.96289 12.899263,29.14217 8.0337652 0 1 0.23243,1 12.899263,29.14217 8.0337652 0 1 0.21093,1.0293 12.899263,29.14217 8.0337652 0 1 0.18555,1.0625 12.899263,29.14217 8.0337652 0 1 0.16211,1.08984 12.899263,29.14217 8.0337652 0 1 0.13672,1.11719 12.899263,29.14217 8.0337652 0 1 0.11328,1.14258 12.899263,29.14217 8.0337652 0 1 0.0859,1.16406 12.899263,29.14217 8.0337652 0 1 0.0625,1.1836 12.899263,29.14217 8.0337652 0 1 0.0371,1.20117 12.899263,29.14217 8.0337652 0 1 0.01,1.21875 12.899263,29.14217 8.0337652 0 1 -0.0137,1.23047 12.899263,29.14217 8.0337652 0 1 -0.041,1.24218 12.899263,29.14217 8.0337652 0 1 -0.0644,1.25 12.899263,29.14217 8.0337652 0 1 -0.0918,1.25586 12.899263,29.14217 8.0337652 0 1 -0.11523,1.25977 12.899263,29.14217 8.0337652 0 1 -0.14063,1.26172 12.899263,29.14217 8.0337652 0 1 -0.16601,1.25976 12.899263,29.14217 8.0337652 0 1 -0.64063,3.75196 12.899263,29.14217 8.0337652 0 1 -0.84961,3.65625 12.899263,29.14217 8.0337652 0 1 -1.04101,3.49804 12.899263,29.14217 8.0337652 0 1 -1.2168,3.28125 12.899263,29.14217 8.0337652 0 1 -1.37109,3.00782 12.899263,29.14217 8.0337652 0 1 -1.50195,2.68164 12.899263,29.14217 8.0337652 0 1 -1.60743,2.31054 12.899263,29.14217 8.0337652 0 1 -1.68554,1.90235 12.899263,29.14217 8.0337652 0 1 -1.73438,1.45703 12.899263,29.14217 8.0337652 0 1 -1.75195,0.99023 12.899263,29.14217 8.0337652 0 1 -1.74414,0.50586 12.899263,29.14217 8.0337652 0 1 -1.70117,0.0117 12.899263,29.14217 8.0337652 0 1 -1.63282,-0.48242 12.899263,29.14217 8.0337652 0 1 -1.5332,-0.96875 12.899263,29.14217 8.0337652 0 1 -1.41211,-1.43555 12.899263,29.14217 8.0337652 0 1 -1.26172,-1.88086 12.899263,29.14217 8.0337652 0 1 -1.09375,-2.29296 12.899263,29.14217 8.0337652 0 1 -0.90429,-2.66602 12.899263,29.14217 8.0337652 0 1 -0.70118,-2.99414 12.899263,29.14217 8.0337652 0 1 -0.43164,-2.89844 c -8.94538,16.50142 -17.31567,29.64891 -22.80859,23.89649 -20.20241,-21.15685 11.5156,-85.2644 -56.75781,-104.74219 -4.50394,-1.28493 -9.05807,-2.01747 -13.5293,-2.12891 z" />
    <path
       style="fill:#fdbaa6;fill-opacity:1;stroke:none;stroke-opacity:1"
       d="m 230.62393,294.19128 c -10.63545,72.11443 73.55995,77.10173 102.5218,77.71225 69.42539,2.70294 138.35045,-77.40408 85.00918,-80.26618 -43.51969,-2.33511 -47.82767,31.24802 -125.25858,-7.69057 -5.46607,-2.74879 -19.09414,-7.72609 -30.89562,-6.53843 -15.55914,1.56582 -30.21625,8.91388 -31.37678,16.78293 z"
       id="path463"
       sodipodi:nodetypes="scssss" />
    <ellipse
       style="fill:#000000"
       id="path294"
       cx="341.2182"
       cy="201.19029"
       rx="12.899263"
       ry="29.797297"
       transform="rotate(8.0337652)" />
    <ellipse
       style="fill:#ffffff;stroke-width:0.442611"
       id="path294-1"
       cx="341.39328"
       cy="203.2674"
       rx="5.834631"
       ry="12.905475"
       transform="matrix(0.99102231,0.13369662,-0.14607995,0.98927279,0,0)" />
    <ellipse
       style="fill:#ffffff;stroke-width:0.361224"
       id="path294-1-0"
       cx="441.65909"
       cy="191.87418"
       rx="4.6152878"
       ry="10.86667"
       transform="matrix(0.9897944,0.14250278,-0.13706138,0.99056256,0,0)" />
    <ellipse
       style="fill:#000000"
       id="path294-3"
       cx="459.95181"
       cy="-262.45804"
       rx="12.899263"
       ry="29.797297"
       transform="rotate(64.39101)" />
    <ellipse
       style="fill:#ffffff;stroke-width:0.442611"
       id="path294-1-7"
       cx="457.78662"
       cy="-260.5029"
       rx="5.834631"
       ry="12.905475"
       transform="matrix(0.43773567,0.89910371,-0.90450775,0.42645719,0,0)" />
    <path
       style="fill:#fdbaa5;fill-opacity:1;stroke:none;stroke-opacity:1"
       d="m 193.36667,106.31846 c -3.98683,17.88698 -3.67551,35.77395 2.06388,53.66093 14.73536,-9.50773 22.39352,-20.10426 48.50123,-27.8624 -5.68255,-15.85781 -33.78122,-25.76966 -50.56511,-25.79853 z"
       id="path3339"
       sodipodi:nodetypes="cccc" />
    <path
       style="fill:#000000;fill-opacity:1;stroke:none;stroke-width:1.7;stroke-dasharray:none;stroke-opacity:1"
       d="m 265.55015,313.12791 c 9.50187,-4.98685 16.90609,11.3422 28.50227,17.55688 17.64149,9.45452 32.42721,1.86761 32.74764,15.58154 0.26114,11.17651 -21.27151,10.34971 -34.93671,4.12016 -37.18429,-16.95121 -33.68022,-33.39216 -26.3132,-37.25858 z"
       id="path4439"
       sodipodi:nodetypes="sssss" />
  </g>
</svg>
